HIERARCHY
ROOT root
{
	OFFSET 0.000000 0.000000 0.000000
	CHANNELS 6 Xposition Yposition Zposition Zrotation Yrotation Xrotation
	JOINT lhip
	{
		OFFSET 0.058581 -0.082280 -0.017664
		CHANNELS 3 Zrotation Yrotation Xrotation
		JOINT lknee
		{
			OFFSET 0.043451 -0.386469 0.008037
			CHANNELS 3 Zrotation Yrotation Xrotation
			JOINT lankle
			{
				OFFSET -0.014790 -0.426874 -0.037428
				CHANNELS 3 Zrotation Yrotation Xrotation
				JOINT ltoe
				{
					OFFSET 0.041054 -0.060286 0.122042
					CHANNELS 3 Zrotation Yrotation Xrotation
					End Site
					{
						OFFSET 0.000000 0.000000 0.000000
					}
				}
			}
		}
	}
	JOINT rhip
	{
		OFFSET -0.060310 -0.090513 -0.013543
		CHANNELS 3 Zrotation Yrotation Xrotation
		JOINT rknee
		{
			OFFSET -0.043257 -0.383688 -0.004843
			CHANNELS 3 Zrotation Yrotation Xrotation
			JOINT rankle
			{
				OFFSET 0.019056 -0.420046 -0.034562
				CHANNELS 3 Zrotation Yrotation Xrotation
				JOINT rtoe
				{
					OFFSET -0.034840 -0.062106 0.130323
					CHANNELS 3 Zrotation Yrotation Xrotation
					End Site
					{
						OFFSET 0.000000 0.000000 0.000000
					}
				}
			}
		}
	}
	JOINT lowerback
	{
		OFFSET 0.004439 0.124404 -0.038385
		CHANNELS 3 Zrotation Yrotation Xrotation
		JOINT upperback
		{
			OFFSET 0.004488 0.137956 0.026820
			CHANNELS 3 Zrotation Yrotation Xrotation
			JOINT chest
			{
				OFFSET -0.002265 0.056032 0.002855
				CHANNELS 3 Zrotation Yrotation Xrotation
				JOINT lowerneck
				{
					OFFSET -0.013390 0.211636 -0.033468
					CHANNELS 3 Zrotation Yrotation Xrotation
					JOINT upperneck
					{
						OFFSET 0.010113 0.088937 0.050410
						CHANNELS 3 Zrotation Yrotation Xrotation
						End Site
						{
							OFFSET 0.000000 0.000000 0.000000
						}
					}
				}
				JOINT lclavicle
				{
					OFFSET 0.071702 0.114000 -0.018898
					CHANNELS 3 Zrotation Yrotation Xrotation
					JOINT lshoulder
					{
						OFFSET 0.122921 0.045205 -0.019046
						CHANNELS 3 Zrotation Yrotation Xrotation
						JOINT lelbow
						{
							OFFSET 0.255332 -0.015649 -0.022946
							CHANNELS 3 Zrotation Yrotation Xrotation
							JOINT lwrist
							{
								OFFSET 0.265709 0.012698 -0.007375
								CHANNELS 3 Zrotation Yrotation Xrotation
								End Site
								{
									OFFSET 0.000000 0.000000 0.000000
								}
							}
						}
					}
				}
				JOINT rclavicle
				{
					OFFSET -0.082954 0.112472 -0.023707
					CHANNELS 3 Zrotation Yrotation Xrotation
					JOINT rshoulder
					{
						OFFSET -0.113228 0.046853 -0.008472
						CHANNELS 3 Zrotation Yrotation Xrotation
						JOINT relbow
						{
							OFFSET -0.260127 -0.014369 -0.031269
							CHANNELS 3 Zrotation Yrotation Xrotation
							JOINT rwrist
							{
								OFFSET -0.269108 0.006794 -0.006027
								CHANNELS 3 Zrotation Yrotation Xrotation
								End Site
								{
									OFFSET 0.000000 0.000000 0.000000
								}
							}
						}
					}
				}
			}
		}
	}
}
MOTION
Frames: 13
Frame Time: 0.033333
-0.895940 -1.670206 0.937079 149.798418 1.207447 94.297520 12.656789 10.765758 -26.506855 -3.527524 17.754835 61.365117 1.834491 0.984440 -24.752249 0.000000 -0.000000 0.000000 -15.681585 -10.422583 -0.786483 4.186120 -1.758482 24.787090 -2.687268 3.243312 -31.975027 0.000000 -0.000000 0.000000 5.286882 0.970808 16.516046 4.907979 -7.314091 16.303037 4.567291 -2.584182 -7.446912 -6.940145 1.045150 -2.943317 -3.829689 14.621421 -13.986802 -30.981912 -3.811549 8.146887 -60.591416 1.150575 11.226201 -137.404743 -89.194912 152.330440 10.380972 -7.843082 -23.851149 23.939085 6.199776 9.736741 45.016512 0.489831 12.202534 149.937075 88.209785 154.072254 8.126696 7.891020 -23.527524 
-0.885760 -1.645079 0.930922 149.455721 0.636094 94.830404 17.033718 13.395136 -29.383761 -5.685705 16.423322 54.733912 1.304838 -0.334847 -23.787021 0.000000 -0.000000 0.000000 -17.092211 -11.181359 1.598899 4.194105 -2.062491 23.319563 -2.181277 2.322686 -32.038218 0.000000 -0.000000 0.000000 1.880116 4.343848 16.838475 4.628527 -6.055044 15.469036 4.802789 -1.234498 -6.356441 -5.252042 3.268189 -5.786226 -1.109034 9.045059 -9.839749 -28.228130 -2.413507 7.718157 -58.380201 1.321771 8.503939 -39.435987 -88.813746 57.619762 7.008000 -10.716696 -31.942792 25.070640 7.227460 10.032794 48.945341 2.746514 12.933839 52.342148 87.326580 61.680662 8.583657 8.438454 -23.878241 
-0.876848 -1.617340 0.922175 149.462164 -0.076981 95.009747 20.669319 13.353142 -30.909687 -7.282228 12.635886 45.293894 -2.016809 -2.021602 -20.657566 0.000000 -0.000000 0.000000 -18.963245 -11.818047 2.981948 3.925714 -3.066635 24.635738 -1.465454 3.365249 -33.589759 0.000000 -0.000000 0.000000 -1.763092 8.095382 17.984584 4.188411 -4.409718 14.072108 4.617952 0.298915 -5.590558 -1.954753 4.312832 -9.693763 1.837671 -0.912855 -6.137301 -24.933621 -1.058077 6.352244 -55.516068 1.186605 7.997050 66.699614 -88.584435 -49.437818 3.301382 -12.841152 -36.519323 26.555786 7.365633 8.490914 52.246472 4.975208 14.548506 29.115182 85.002631 42.200111 9.286139 7.397609 -19.164102 
-0.864432 -1.581098 0.903304 146.947509 0.214164 94.634279 26.617688 13.507849 -28.983720 -8.176320 6.867882 35.144469 -8.474449 -5.581376 -11.736346 0.000000 -0.000000 0.000000 -20.367976 -11.758374 1.460401 2.501809 -6.383288 32.601007 -0.213391 3.917364 -36.413826 0.000000 -0.000000 0.000000 -6.429508 13.360831 19.972082 2.863080 -0.172714 13.867286 4.258823 3.266929 -7.011476 1.608789 4.705371 -11.924766 7.320145 -14.187004 -5.462367 -20.569476 -0.891982 4.128472 -51.804450 -0.788113 8.192526 102.073277 -84.517540 -86.150527 -0.405063 -14.781113 -39.624748 27.344917 9.058359 7.177691 55.106975 5.321690 14.968948 15.957273 84.294396 29.909860 10.629448 8.641237 -20.723960 
-0.859569 -1.557699 0.887186 144.760697 0.737049 94.360078 30.293667 13.095383 -26.692638 -8.419694 5.671347 34.202566 -10.178012 -5.157979 -12.582055 0.000000 -0.000000 0.000000 -20.950927 -12.219465 -1.790581 0.644271 -9.136327 41.492329 -0.087673 1.805880 -36.982413 0.000000 -0.000000 0.000000 -8.390258 15.409746 20.840400 1.394559 2.717609 13.853370 2.996360 5.101536 -7.419505 3.274383 3.459470 -12.558058 12.050597 -19.965467 -7.968196 -19.055770 -1.199649 2.522992 -48.956110 -3.275295 7.818005 109.211987 -81.443733 -93.559829 -2.656924 -14.228058 -40.948338 27.781001 9.933206 7.027839 56.865423 6.208284 13.577666 -9.357523 82.772842 5.050118 11.754798 8.642844 -20.976722 
-0.854137 -1.526317 0.868252 142.301442 0.123139 92.637287 32.008130 14.095103 -24.277222 -9.837795 7.259542 41.154515 -9.198712 -7.896559 -19.570770 0.000000 -0.000000 0.000000 -23.016893 -13.395153 -5.764596 -3.939786 -10.410488 54.291970 0.584302 -0.517598 -35.078704 0.000000 -0.000000 0.000000 -11.708733 18.844625 24.374841 -0.210681 4.495819 13.661953 2.405345 5.880188 -8.416084 5.548871 0.885618 -12.889145 16.890259 -24.200133 -12.139468 -19.771759 -2.524277 0.834219 -45.148504 -7.309873 6.403611 114.621064 -75.704068 -100.754570 -2.910668 -15.963819 -42.280198 29.080454 11.412179 5.131702 57.100532 7.275443 12.776600 -26.348178 76.410010 -14.838041 13.150764 7.501838 -20.801794 
-0.845332 -1.500487 0.856482 143.537387 -0.530138 90.995991 31.422119 15.516504 -24.240178 -9.412157 7.035329 46.560903 -8.409078 -9.876405 -22.521144 0.000000 -0.000000 0.000000 -23.991832 -14.666646 -7.965067 -6.298981 -9.875068 63.752080 1.171556 -0.009814 -31.394742 0.000000 -0.000000 0.000000 -14.367827 21.305720 29.729473 -0.756139 3.279531 13.269103 3.151081 5.292069 -10.147864 6.929788 -0.852843 -12.933996 19.473879 -25.129578 -13.163394 -21.509018 -5.741792 -0.060851 -42.722288 -11.531210 5.533639 114.129312 -68.931806 -100.645437 -2.153345 -15.073902 -41.876593 30.334071 13.827961 4.749446 56.228050 7.446235 10.974244 -28.965470 66.974201 -21.878196 14.142472 6.921400 -20.720087 
-0.833999 -1.474482 0.845831 146.959567 0.227501 90.155225 31.826579 15.003499 -25.226447 -10.228974 4.493752 50.082539 -7.909896 -10.463178 -25.996378 0.000000 -0.000000 0.000000 -23.813345 -15.574929 -8.919721 -6.239085 -10.229961 70.577570 2.327622 3.000286 -29.949013 0.000000 -0.000000 0.000000 -14.294321 20.995700 34.719863 -1.096253 1.478992 11.832096 3.661151 4.341300 -10.275043 7.985204 -2.028795 -12.764198 21.725701 -25.164369 -12.574531 -22.545032 -9.266121 -1.148291 -42.706972 -17.452526 5.243843 120.017237 -63.051656 -103.001672 -0.521486 -13.396889 -37.611391 30.350587 14.963986 4.586748 55.356517 6.394302 6.911115 -23.586675 57.390184 -20.807639 15.484239 8.032573 -23.625375 
-0.816766 -1.451573 0.838540 149.141269 0.638847 90.424669 32.257704 15.283081 -25.634094 -10.731695 2.664073 51.718860 -7.504454 -10.641858 -28.270462 0.000000 -0.000000 0.000000 -23.695265 -16.735552 -11.747871 -5.611712 -10.277242 76.604898 2.950232 6.818679 -29.502584 0.000000 -0.000000 0.000000 -15.421134 21.323689 38.242937 -1.035761 -0.178928 9.939709 4.586661 3.255777 -10.439045 8.656921 -2.326539 -11.528765 23.611194 -24.911902 -12.141939 -23.100593 -13.604836 -2.044332 -41.412063 -24.392418 5.351503 130.856794 -58.165261 -108.243920 0.334639 -11.687369 -29.796245 30.547560 15.288741 5.095523 53.775923 4.212959 2.332669 -17.868794 48.506790 -17.738969 16.643495 8.418850 -24.693528 
-0.790965 -1.424801 0.831089 150.971884 1.545646 91.757456 33.244958 16.612546 -25.694735 -11.178558 0.053384 51.860279 -6.417978 -9.884252 -30.324956 0.000000 -0.000000 0.000000 -23.661266 -18.807853 -17.087264 -5.150615 -11.109193 82.047913 4.965917 8.299084 -28.746281 0.000000 -0.000000 0.000000 -15.942314 19.481403 40.589508 -0.510486 -2.282674 8.138013 5.382046 1.839134 -10.359877 7.483315 -2.472255 -9.670913 24.112358 -22.866611 -11.414152 -22.568323 -19.241260 -3.193493 -38.035066 -33.133971 5.962826 145.443906 -55.022626 -114.882031 3.372677 -9.215187 -17.028121 30.380519 15.915170 6.569205 51.351458 0.238837 -2.055656 -13.435700 41.022803 -15.759966 16.758579 8.447680 -25.811806 
-0.764535 -1.403865 0.829424 151.492005 1.974812 92.583811 34.569564 17.129376 -23.424226 -11.711298 -1.877869 50.025489 -6.780595 -8.251355 -31.246012 0.000000 -0.000000 0.000000 -23.817563 -19.617036 -22.571681 -4.750066 -12.339193 85.457585 5.159997 6.546198 -29.009726 0.000000 -0.000000 0.000000 -16.310142 16.954647 41.900403 0.449457 -4.038982 6.772480 6.171964 0.082654 -9.686847 6.610588 -1.125461 -8.861222 23.287324 -21.069732 -10.629704 -19.894556 -22.405241 -3.571659 -34.426303 -37.978084 6.709997 156.336544 -54.580902 -120.930860 8.462802 -7.580924 -5.177667 29.115543 15.457383 6.008816 50.186262 -2.857507 -3.620403 -11.111107 37.079296 -16.588893 16.611219 8.892356 -27.537651 
-0.731551 -1.381212 0.832688 149.819164 1.745671 92.957401 35.839475 17.853678 -17.764475 -12.226770 -3.821261 45.651018 -7.489892 -5.774041 -31.837421 0.000000 -0.000000 0.000000 -24.097751 -20.712719 -29.371761 -3.947680 -13.559513 88.623113 5.355027 5.970547 -28.974222 0.000000 -0.000000 0.000000 -16.875295 14.001285 41.690846 1.355294 -5.410432 6.455067 6.454063 -1.710101 -9.188477 6.100519 0.995177 -9.483285 21.975763 -20.084231 -9.946646 -17.405007 -23.249308 -4.140061 -30.681435 -38.889473 8.394298 165.385054 -56.730168 -128.335894 13.915780 -6.432765 2.811099 28.139352 13.867571 5.316472 48.906700 -5.490305 -3.989744 -11.141427 36.963849 -20.001694 14.781521 8.127879 -29.412799 
-0.689595 -1.357003 0.837514 146.403053 2.486412 95.989672 37.643210 17.907128 -11.590668 -11.018130 -4.322072 38.447959 -8.395292 -2.522607 -30.806252 0.000000 -0.000000 0.000000 -21.374645 -21.394227 -39.542654 -3.442210 -17.530717 91.285535 3.868620 5.292788 -29.340349 0.000000 -0.000000 0.000000 -16.779953 7.964661 35.458571 1.826011 -5.191945 7.678166 5.533407 -3.325082 -8.904054 6.012088 3.705749 -8.852896 18.977350 -17.167763 -8.534464 -18.061364 -20.574092 -3.066776 -29.223727 -34.611562 10.304271 174.218004 -62.901778 -137.129209 16.595390 -6.630801 6.190485 27.719197 10.014146 4.936584 47.523510 -6.193952 -3.898745 -12.314626 38.680099 -21.825341 12.075640 7.580068 -31.409503 
